<?xml version="1.0" encoding="UTF-8"?>
<svg id="Layer_2" data-name="Layer 2" xmlns="http://www.w3.org/2000/svg" viewBox="0 0 181.95 181.95">
  <defs>
    <style>
      .cls-1 {
        fill: #fc17b0;
      }

      .cls-2 {
        fill: #600546;
      }
    </style>
  </defs>
  <g id="Layer_1-2" data-name="Layer 1">
    <g>
      <path id="Vector" class="cls-2" d="M149.32,0H32.63C14.61,0,0,14.61,0,32.63v116.69c0,18.02,14.61,32.63,32.63,32.63h116.69c18.02,0,32.63-14.61,32.63-32.63V32.63c0-18.02-14.61-32.63-32.63-32.63Z"/>
      <g>
        <path class="cls-1" d="M31.62,132.01c-1.42,0-1.56-.52-1.56-1.68V49.59c0-.9.28-1.29,1.27-1.29h22.24c.85,0,1.13.39,1.13,1.16v63.46h38.37c.99,0,1.27.39,1.13,1.29l-2.97,16.51c-.28,1.16-.99,1.29-1.84,1.29H31.62Z"/>
        <path class="cls-1" d="M132.73,82.99c-4.53,0-6.66,1.16-6.66,2.45s.29,2.06,8.78,4.9c16.14,5.67,21.67,11.61,21.67,21.41,0,12.38-10.34,21.54-30.87,21.54-9.06,0-14.87-1.16-20.39-3.22-.85-.26-1.13-.91-1.13-1.81v-16.51c0-.78.7-1.03,1.27-.78,6.94,4.13,14.73,5.55,19.54,5.55,5.52,0,7.79-1.03,7.79-2.71s-1.27-2.71-9.06-5.55c-15.58-5.55-20.25-11.87-20.25-21.15,0-10.97,9.2-21.02,30.02-21.02,6.66,0,13.59.77,17.7,2.32.85.26.99,1.03.99,2.06v15.09c0,1.03-.57,1.68-1.56,1.16-5.67-2.71-12.04-3.74-17.84-3.74Z"/>
      </g>
    </g>
  </g>
</svg>